<?xml version="1.0" encoding="UTF-8" standalone="no"?>
<!-- Created with sK1/UniConvertor (http://sk1project.org/) -->

<svg   xmlns:dc="http://purl.org/dc/elements/1.1/"   xmlns:cc="http://creativecommons.org/ns#"   xmlns:rdf="http://www.w3.org/1999/02/22-rdf-syntax-ns#"
   xmlns:svg="http://www.w3.org/2000/svg"   xmlns="http://www.w3.org/2000/svg"   xmlns:sodipodi="http://sodipodi.sourceforge.net/DTD/sodipodi-0.dtd"
   xmlns:inkscape="http://www.inkscape.org/namespaces/inkscape"   width="375"   height="400" id="gis_support_logo" version="1.1" inkscape:version="0.48.4 r9939"
   sodipodi:docname="GIS_support_logo" style="fill-rule:evenodd">
<metadata     id="metadata56">
    <rdf:RDF>
      <cc:Work
         rdf:about="">
        <dc:format>image/svg+xml</dc:format>
        <dc:type
           rdf:resource="http://purl.org/dc/dcmitype/StillImage" />
        <dc:title />
      </cc:Work>
    </rdf:RDF>
</metadata>
  <sodipodi:namedview
     pagecolor="#ffffff"
     bordercolor="#666666"
     borderopacity="1"
     objecttolerance="10"
     gridtolerance="10"
     guidetolerance="10"
     inkscape:pageopacity="0"
     inkscape:pageshadow="2"
     inkscape:window-width="1280"
     inkscape:window-height="751"
     id="namedview54"
     showgrid="false"
     inkscape:zoom="0.26809734"
     inkscape:cx="670.84334"
     inkscape:cy="456.33527"
     inkscape:window-x="0"
     inkscape:window-y="25"
     inkscape:window-maximized="1"
     inkscape:current-layer="svg2" />
<!--  <defs     id="defs4">
    <marker       id="ArrowEnd"
       viewBox="0 0 10 10"       refX="0"       refY="5"       markerUnits="strokeWidth"
       markerWidth="4"       markerHeight="3"       orient="auto">
      <path         d="M 0,0 10,5 0,10 z"         id="path7"         inkscape:connector-curvature="0" />
    </marker>
    <marker       id="ArrowStart"
       viewBox="0 0 10 10"       refX="10"       refY="5"
       markerUnits="strokeWidth"       markerWidth="4"       markerHeight="3"       orient="auto">
      <path         d="M 10,0 0,5 10,10 z"         id="path10"         inkscape:connector-curvature="0" />
    </marker>
  </defs>-->
<!--  <path     style="fill:none;stroke:none"
     d="m -82.048892,-327.34228 841.995282,0 0,595.351 -841.995283,0 0,-595.351 0,0 z"
     id="path16"     inkscape:connector-curvature="0" />-->
<g     id="g2990"     transform="matrix(1.9855188,0,0,1.9855188,-32.187842,-1239.0904)">
    <path       style="fill:#33ccff;stroke:none"
       d="m 187.40337,725.55052 c -1.807,3.829 -3.952,7.253 -6.436,10.269 2.636,-5.537 4.418,-11.486 5.179,-17.743 1.331,-10.935 -0.6,-21.51701 -5.11,-31.02301 3.159,3.937 5.551,7.887 7.183,11.851 1.622,3.96101 2.427,8.09801 2.427,12.42101 0,4.91 -1.085,9.642 -3.243,14.225 z m -134.007,-7.474 c 0.761,6.257 2.543,12.206 5.179,17.743 -2.483,-3.016 -4.629,-6.44 -6.435,-10.269 -2.159,-4.583 -3.244,-9.315 -3.244,-14.225 0,-4.323 0.806,-8.46 2.428,-12.42101 1.631,-3.964 4.023,-7.914 7.182,-11.851 -4.51,9.506 -6.441,20.08801 -5.11,31.02301 z"
       id="path28"
       inkscape:connector-curvature="0" />
    <path       style="fill:#33ccff;stroke:none"
       d="m 67.73237,683.35451 c 8.739,-16.026 24.944,-27.637 44.466,-29.693 22.374,-2.357 43.102,8.466 54.461,26.21 -2.206,-0.267 -4.653,-0.408 -7.337,-0.418 -4.113,0.015 -7.793,0.483 -11.042,1.388 -3.249,0.921 -6.031,2.203 -8.312,3.849 -2.298,1.645 -4.043,3.591 -5.253,5.795 -1.209,2.219 -1.814,4.633 -1.832,7.259 0.018,2.944 0.83,5.55401 2.42,7.83301 6.039,8.656 28.581,10.179 28.581,18.212 0,11.33 -24.762,5.286 -31.431,2.448 l 0,12.445 c 1.268,0.578 2.844,1.12 4.716,1.638 2.074,0.573 4.354,1.056 6.877,1.418 0.352,0.051 0.704,0.098 1.059,0.141 1.329,0.09 2.675,0.139 4.04,0.146 5.8,0 10.843,-0.694 15.113,-2.068 1.609,-0.515 3.12,-1.124 4.534,-1.825 -8.718,16.107 -24.966,27.786 -44.552,29.85 -23.274,2.451 -44.768,-9.358 -55.786,-28.384 0.349,0.125 0.703,0.244 1.062,0.359 4.271,1.374 9.314,2.068 15.113,2.068 2.836,-0.015 5.594,-0.211 8.273,-0.573 2.679,-0.363 5.138,-0.8 7.376,-1.329 2.253,-0.528 4.128,-1.041 5.625,-1.539 l 0,-32.056 -23.733,0 0,10.776 9.834,0 0,12.768 c -0.583,0.242 -1.497,0.423 -2.711,0.574 -1.229,0.15 -2.663,0.241 -4.286,0.241 -2.963,0 -5.673,-0.453 -8.132,-1.328 -2.458,-0.891 -4.586,-2.188 -6.366,-3.894 -1.797,-1.706 -3.184,-3.788 -4.161,-6.263 -0.977,-2.46 -1.465,-5.267 -1.481,-8.437 0.016,-3.335 0.551,-6.248 1.623,-8.738 1.056,-2.49001 2.553,-4.54301 4.46,-6.18801 1.923,-1.645 4.16,-2.868 6.729,-3.683 2.553,-0.815 5.358,-1.222 8.368,-1.222 2.317,0 4.381,0.121 6.162,0.332 1.781,0.227 3.372,0.543 4.759,0.936 1.403,0.392 2.679,0.845 3.83,1.373 l 3.025,-11.244 c -1.04,-0.437 -2.427,-0.86 -4.144,-1.298 -1.718,-0.422 -3.704,-0.784 -5.989,-1.071 -2.285,-0.272 -4.79,-0.423 -7.548,-0.438 -5.248,0 -10.086,0.71 -14.483,2.128 -1.363,0.439 -2.673,0.939 -3.927,1.502 z m 59.473,0.208 0,13.446 0,40.87101 c -5.074,-0.611 -10.209,-0.665 -15.296,-0.167 l 0,-54.15201 c 5.055,1.022 10.829,1.263 15.296,0.002 z m 48.174,21.23801 c 0.279,2.644 0.369,5.265 0.29,7.851 -1.015,-1.039 -2.214,-2.008 -3.594,-2.908 -2.662,-1.736 -6.048,-3.26 -10.161,-4.573 -3.024,-0.981 -5.495,-1.872 -7.413,-2.702 -1.918,-0.81501 -3.318,-1.69001 -4.217,-2.61101 -0.898,-0.92 -1.347,-2.022 -1.33,-3.29 0,-1.041 0.363,-2.007 1.106,-2.898 0.743,-0.89 1.883,-1.599 3.387,-2.143 1.503,-0.558 3.387,-0.83 5.668,-0.845 2.246,0.015 4.302,0.181 6.168,0.483 1.849,0.317 3.474,0.694 4.891,1.132 1.077,0.349 2.012,0.679 2.795,0.999 1.172,3.674 1.991,7.52 2.41,11.50501 z"
       id="path26"
       inkscape:connector-curvature="0" />
    <path       style="fill:#666666;stroke:none"
       d="m 74.60037,797.37352 c 0.471,0.279 1.029,0.503 1.669,0.672 0.64,0.169 1.33,0.256 2.062,0.261 1.037,-0.005 1.924,-0.179 2.656,-0.512 0.736,-0.339 1.298,-0.809 1.691,-1.408 0.389,-0.599 0.585,-1.294 0.59,-2.085 0,-0.654 -0.133,-1.23 -0.398,-1.719 -0.265,-0.493 -0.654,-0.923 -1.17,-1.289 -0.517,-0.366 -1.157,-0.69 -1.916,-0.969 -0.576,-0.224 -1.046,-0.439 -1.417,-0.654 -0.365,-0.21 -0.64,-0.443 -0.813,-0.699 -0.179,-0.256 -0.266,-0.562 -0.266,-0.924 0,-0.333 0.083,-0.635 0.252,-0.909 0.169,-0.27 0.416,-0.49 0.74,-0.649 0.325,-0.165 0.727,-0.247 1.203,-0.252 0.411,0.005 0.79,0.046 1.138,0.133 0.343,0.086 0.649,0.187 0.914,0.311 0.27,0.118 0.489,0.237 0.663,0.351 l 0.576,-1.755 c -0.361,-0.238 -0.823,-0.434 -1.38,-0.585 -0.558,-0.156 -1.18,-0.233 -1.856,-0.238 -0.709,0.005 -1.345,0.105 -1.907,0.307 -0.567,0.201 -1.047,0.479 -1.444,0.836 -0.398,0.357 -0.7,0.773 -0.91,1.239 -0.21,0.471 -0.32,0.974 -0.32,1.513 -0.005,0.795 0.283,1.513 0.864,2.144 0.581,0.636 1.472,1.17 2.674,1.614 0.585,0.215 1.056,0.434 1.413,0.663 0.361,0.224 0.622,0.48 0.786,0.758 0.165,0.284 0.247,0.613 0.242,0.993 0,0.379 -0.091,0.717 -0.278,1.01 -0.183,0.297 -0.467,0.53 -0.842,0.704 -0.379,0.169 -0.854,0.256 -1.43,0.26 -0.407,-0.004 -0.81,-0.05 -1.203,-0.146 -0.397,-0.091 -0.768,-0.206 -1.115,-0.347 -0.343,-0.142 -0.64,-0.288 -0.892,-0.439 l -0.576,1.81 z m 22.567,-12.645 -2.414,0 0,8.119 c 0,0.233 -0.018,0.458 -0.059,0.668 -0.037,0.21 -0.092,0.402 -0.16,0.567 -0.147,0.375 -0.366,0.726 -0.659,1.065 -0.292,0.334 -0.653,0.608 -1.074,0.823 -0.425,0.215 -0.91,0.324 -1.449,0.333 -0.718,-0.004 -1.294,-0.187 -1.733,-0.539 -0.434,-0.357 -0.749,-0.85 -0.941,-1.49 -0.197,-0.636 -0.293,-1.376 -0.288,-2.222 l 0,-7.324 -2.414,0 0,7.763 c 0.009,1.152 0.151,2.107 0.421,2.866 0.274,0.754 0.64,1.349 1.087,1.778 0.448,0.435 0.942,0.736 1.477,0.915 0.535,0.178 1.065,0.26 1.596,0.256 0.589,-0.005 1.119,-0.083 1.595,-0.238 0.475,-0.151 0.896,-0.347 1.257,-0.594 0.366,-0.247 0.672,-0.512 0.928,-0.8 0.256,-0.284 0.457,-0.563 0.608,-0.837 l 0.055,0 0.137,2.167 2.14,0 c -0.041,-0.521 -0.069,-1.084 -0.087,-1.692 -0.014,-0.603 -0.023,-1.257 -0.023,-1.956 l 0,-9.628 z m 3.695,18.707 2.387,0 0,-7.214 0.055,0 c 0.269,0.439 0.608,0.814 1.024,1.125 0.411,0.311 0.877,0.548 1.398,0.713 0.522,0.164 1.075,0.247 1.664,0.247 0.791,0 1.546,-0.147 2.268,-0.444 0.722,-0.297 1.367,-0.74 1.938,-1.335 0.567,-0.589 1.02,-1.334 1.349,-2.226 0.329,-0.891 0.498,-1.934 0.507,-3.127 -0.004,-1.005 -0.146,-1.92 -0.43,-2.738 -0.278,-0.823 -0.672,-1.532 -1.179,-2.126 -0.512,-0.589 -1.106,-1.047 -1.792,-1.371 -0.686,-0.32 -1.435,-0.48 -2.249,-0.485 -1.083,0.005 -2.021,0.229 -2.812,0.668 -0.79,0.443 -1.426,1.069 -1.906,1.883 l -0.055,0 -0.137,-2.277 -2.139,0 c 0.027,0.627 0.055,1.294 0.077,2.003 0.019,0.708 0.032,1.485 0.032,2.331 l 0,14.373 z m 2.387,-13.139 c 0,-0.15 0.018,-0.31 0.05,-0.479 0.032,-0.165 0.073,-0.325 0.114,-0.481 0.151,-0.608 0.412,-1.129 0.778,-1.572 0.361,-0.444 0.79,-0.782 1.289,-1.024 0.498,-0.242 1.028,-0.361 1.581,-0.366 0.64,0.005 1.203,0.137 1.696,0.398 0.49,0.256 0.901,0.617 1.235,1.07 0.338,0.452 0.589,0.973 0.763,1.563 0.169,0.59 0.256,1.216 0.256,1.879 0,1.019 -0.16,1.915 -0.48,2.683 -0.315,0.768 -0.772,1.363 -1.372,1.792 -0.598,0.43 -1.325,0.65 -2.18,0.654 -0.581,-0.004 -1.115,-0.123 -1.609,-0.361 -0.494,-0.238 -0.914,-0.567 -1.262,-0.987 -0.347,-0.426 -0.599,-0.915 -0.75,-1.477 -0.041,-0.151 -0.068,-0.311 -0.086,-0.475 -0.014,-0.165 -0.023,-0.334 -0.023,-0.512 l 0,-2.305 z m 12.911,13.139 2.387,0 0,-7.214 0.055,0 c 0.269,0.439 0.608,0.814 1.024,1.125 0.411,0.311 0.877,0.548 1.398,0.713 0.522,0.164 1.075,0.247 1.664,0.247 0.791,0 1.546,-0.147 2.268,-0.444 0.722,-0.297 1.367,-0.74 1.938,-1.335 0.567,-0.589 1.02,-1.334 1.349,-2.226 0.329,-0.891 0.498,-1.934 0.507,-3.127 -0.004,-1.005 -0.146,-1.92 -0.429,-2.738 -0.279,-0.823 -0.673,-1.532 -1.18,-2.126 -0.512,-0.589 -1.106,-1.047 -1.792,-1.371 -0.686,-0.32 -1.435,-0.48 -2.249,-0.485 -1.083,0.005 -2.021,0.229 -2.811,0.668 -0.791,0.443 -1.427,1.069 -1.907,1.883 l -0.055,0 -0.137,-2.277 -2.139,0 c 0.027,0.627 0.055,1.294 0.077,2.003 0.019,0.708 0.032,1.485 0.032,2.331 l 0,14.373 z m 2.387,-13.139 c 0,-0.15 0.018,-0.31 0.05,-0.479 0.032,-0.165 0.073,-0.325 0.114,-0.481 0.151,-0.608 0.412,-1.129 0.778,-1.572 0.361,-0.444 0.79,-0.782 1.289,-1.024 0.498,-0.242 1.028,-0.361 1.581,-0.366 0.64,0.005 1.203,0.137 1.696,0.398 0.49,0.256 0.901,0.617 1.235,1.07 0.338,0.452 0.589,0.973 0.763,1.563 0.169,0.59 0.256,1.216 0.256,1.879 0,1.019 -0.16,1.915 -0.48,2.683 -0.315,0.768 -0.772,1.363 -1.371,1.792 -0.599,0.43 -1.326,0.65 -2.181,0.654 -0.581,-0.004 -1.115,-0.123 -1.609,-0.361 -0.494,-0.238 -0.914,-0.567 -1.262,-0.987 -0.347,-0.426 -0.599,-0.915 -0.75,-1.477 -0.041,-0.151 -0.068,-0.311 -0.086,-0.475 -0.014,-0.165 -0.023,-0.334 -0.023,-0.512 l 0,-2.305 z m 18.534,-5.842 c -0.919,0 -1.773,0.16 -2.569,0.476 -0.791,0.315 -1.49,0.777 -2.089,1.38 -0.603,0.604 -1.07,1.34 -1.408,2.204 -0.338,0.868 -0.512,1.856 -0.517,2.962 0.005,1.051 0.17,1.998 0.494,2.839 0.325,0.836 0.773,1.554 1.353,2.148 0.576,0.595 1.248,1.052 2.016,1.367 0.773,0.316 1.605,0.471 2.501,0.476 0.64,0 1.28,-0.087 1.911,-0.261 0.631,-0.178 1.23,-0.443 1.792,-0.809 0.562,-0.361 1.061,-0.818 1.499,-1.376 0.435,-0.558 0.778,-1.221 1.024,-1.984 0.252,-0.763 0.38,-1.637 0.384,-2.62 -0.004,-1.01 -0.155,-1.933 -0.461,-2.765 -0.307,-0.828 -0.741,-1.545 -1.303,-2.149 -0.567,-0.603 -1.239,-1.065 -2.021,-1.394 -0.782,-0.325 -1.65,-0.489 -2.606,-0.494 z m -0.055,1.81 c 0.572,0.005 1.075,0.11 1.509,0.311 0.439,0.206 0.814,0.48 1.125,0.828 0.311,0.347 0.567,0.74 0.768,1.179 0.196,0.435 0.342,0.892 0.439,1.367 0.091,0.471 0.137,0.937 0.137,1.39 -0.005,0.75 -0.105,1.44 -0.307,2.066 -0.201,0.626 -0.48,1.17 -0.845,1.632 -0.361,0.462 -0.787,0.818 -1.276,1.074 -0.489,0.252 -1.024,0.38 -1.604,0.384 -0.59,-0.004 -1.134,-0.132 -1.623,-0.388 -0.485,-0.256 -0.91,-0.613 -1.266,-1.07 -0.352,-0.462 -0.627,-1.001 -0.823,-1.618 -0.192,-0.622 -0.293,-1.294 -0.293,-2.025 0,-0.631 0.078,-1.248 0.238,-1.856 0.16,-0.604 0.402,-1.152 0.731,-1.646 0.329,-0.494 0.755,-0.882 1.266,-1.18 0.512,-0.292 1.12,-0.443 1.824,-0.448 z m 9.182,11.74 2.414,0 0,-7.077 c 0,-0.196 0.004,-0.388 0.018,-0.585 0.014,-0.192 0.036,-0.375 0.064,-0.539 0.11,-0.608 0.315,-1.143 0.608,-1.6 0.292,-0.462 0.663,-0.818 1.106,-1.079 0.443,-0.256 0.951,-0.389 1.522,-0.393 0.165,0 0.311,0 0.444,0.004 0.132,0.009 0.256,0.023 0.379,0.051 l 0,-2.277 c -0.109,-0.014 -0.215,-0.027 -0.32,-0.037 -0.105,-0.013 -0.215,-0.018 -0.338,-0.018 -0.544,0.005 -1.061,0.124 -1.545,0.357 -0.485,0.237 -0.914,0.571 -1.289,1.006 -0.375,0.434 -0.663,0.946 -0.869,1.545 l -0.082,0 -0.11,-2.634 -2.112,0 c 0.041,0.613 0.069,1.262 0.087,1.948 0.014,0.681 0.023,1.413 0.023,2.194 l 0,9.134 z m 9.867,-15.744 0,2.468 -2.057,0 0,1.838 2.057,0 0,7.26 c 0,0.772 0.073,1.453 0.219,2.034 0.151,0.581 0.389,1.06 0.713,1.431 0.293,0.32 0.659,0.567 1.098,0.745 0.439,0.178 0.941,0.265 1.508,0.27 0.466,-0.005 0.882,-0.037 1.244,-0.105 0.361,-0.064 0.663,-0.138 0.896,-0.224 l -0.11,-1.838 c -0.174,0.055 -0.37,0.096 -0.585,0.123 -0.22,0.028 -0.489,0.041 -0.814,0.041 -0.443,0 -0.8,-0.1 -1.065,-0.301 -0.265,-0.201 -0.457,-0.494 -0.576,-0.878 -0.114,-0.384 -0.174,-0.85 -0.169,-1.399 l 0,-7.159 3.456,0 0,-1.838 -3.456,0 0,-3.181 -2.359,0.713 z"
       id="path30"
       inkscape:connector-curvature="0" />
</g>
<g     id="g52"     transform="translate(0,-441.89004)" />
</svg>
